# xmcd
#
# Track frame offsets: 
#        150
#        7537
#        16787
#        27280
#        43095
#        54470
#        64270
#        75040
#        87695
#        102272
#        113405
#        128982
#        140235
#        162360
#
# Disc length: 2308 seconds
#
# Revision: 2
# Processed by: cddbd v1.5.2PL0 Copyright (c) Steve Scherf et al.
# Submitted via: ExactAudioCopyFreeDBPlugin 1.0
#
DISCID=a709020e
DTITLE=Fats Domino - Live at Montreux
DYEAR=1973
DGENRE=Jazz
TTITLE0=Hello Josephine
TTITLE1=I'm in Love Again
TTITLE2=Blueberry Hill
TTITLE3=Jambalaya (on the bayou)
TTITLE4=Walking to New Orleans
TTITLE5=I'm Gonna be a Wheel Someday
TTITLE6=Blue Monday
TTITLE7=Mardi Gras in New Orleans
TTITLE8=Stagger Lee
TTITLE9=I Want to Walk You Home
TTITLE10=Let the Four Winds Blow
TTITLE11=I'm Walkin'
TTITLE12=When the Saints Go Marching In
TTITLE13=Sentimental Journey
EXTD=
EXTT0=
EXTT1=
EXTT2=
EXTT3=
EXTT4=
EXTT5=
EXTT6=
EXTT7=
EXTT8=
EXTT9=
EXTT10=
EXTT11=
EXTT12=
EXTT13=
PLAYORDER=
